<?xml version="1.0" encoding="utf-8"?>
<!-- Generator: Adobe Illustrator 21.1.0, SVG Export Plug-In . SVG Version: 6.00 Build 0)  -->
<svg version="1.1" id="Layer_1" xmlns="http://www.w3.org/2000/svg" xmlns:xlink="http://www.w3.org/1999/xlink" x="0px" y="0px"
	 viewBox="0 0 1500 1500" style="enable-background:new 0 0 1500 1500;" xml:space="preserve">
<style type="text/css">
	.st0{fill:#FFFFFF;stroke:#000000;stroke-width:15;stroke-miterlimit:10;}
	.st1{fill:none;stroke:#000000;stroke-width:15;stroke-miterlimit:10;}
</style>
<path class="st0" d="M533.4,939.6c-0.2-0.4-0.5-0.8-0.7-1.2c0.2,0.1,0.5,0.3,0.7,0.4C533.4,939.1,533.4,939.4,533.4,939.6z"/>
<line class="st1" x1="533.4" y1="937.2" x2="532.4" y2="937.8"/>
<path class="st1" d="M751.6,562.8c-0.9,0-1.8,0-2.7,0h-0.4c0.5-0.3,1-0.6,1.5-0.9C750.5,562.2,751,562.5,751.6,562.8z"/>
<path class="st1" d="M966.6,937.2v0.3c-0.5,0.3-1.1,0.6-1.6,0.9c0.5-0.9,1.1-1.8,1.6-2.8C966.6,936.1,966.6,936.7,966.6,937.2z"/>
<path class="st1" d="M1182.1,561.2c-63.5-36.5-137-57.3-215.5-57.3c-78.9,0-152.9,21.1-216.6,58c-63.7-36.9-137.7-58-216.6-58
	c-79.4,0-153.8,21.4-217.8,58.6c0.2-239.2,194.1-433,433.3-433C987.6,129.5,1181.3,322.6,1182.1,561.2z"/>
<path class="st1" d="M750,561.9c-0.5,0.3-1,0.6-1.5,0.9c-128.7,75.1-215.1,214.7-215.1,374.4c0,0.5,0,1.1,0,1.6
	c-0.2-0.1-0.5-0.3-0.7-0.4c-129.8-74.8-217.1-215-217.1-375.6v-0.3c64-37.3,138.4-58.6,217.8-58.6C612.3,503.9,686.3,525,750,561.9z
	"/>
<path class="st1" d="M750,1312.5c-63.7,36.9-137.7,58-216.6,58c-239.3,0-433.3-194-433.3-433.3c0-159.9,86.6-299.6,215.5-374.6v0.3
	c0,160.6,87.3,300.7,217.1,375.6c0.2,0.4,0.5,0.8,0.7,1.2C534.3,1099,621.2,1238,750,1312.5z"/>
<path class="st1" d="M533.4,939.6c-0.2-0.4-0.5-0.8-0.7-1.2c0.2,0.1,0.5,0.3,0.7,0.4C533.4,939.1,533.4,939.4,533.4,939.6z"/>
<path class="st1" d="M751.6,562.8c-0.9,0-1.8,0-2.7,0h-0.4c0.5-0.3,1-0.6,1.5-0.9C750.5,562.2,751,562.5,751.6,562.8z"/>
<path class="st1" d="M966.6,937.2v0.3c-0.5,0.3-1.1,0.6-1.6,0.9c0.5-0.9,1.1-1.8,1.6-2.8C966.6,936.1,966.6,936.7,966.6,937.2z"/>
<path class="st1" d="M1182.1,562.8c0,159.9-86.6,299.6-215.5,374.7v-0.3c0-0.5,0-1,0-1.6c-0.5-159.1-86.8-298-215.1-372.8
	c-0.5-0.3-1-0.6-1.6-0.9c63.7-36.9,137.7-58,216.6-58c78.5,0,152,20.8,215.5,57.3C1182.1,561.7,1182.1,562.3,1182.1,562.8z"/>
<path class="st1" d="M966.6,937.5c-0.1,160.3-87.2,300.2-216.6,375C621.2,1238,534.3,1099,533.4,939.6c0-0.3,0-0.5,0-0.8
	c63.5,36.4,137,57.3,215.5,57.3c78.7,0,152.6-21,216.2-57.7C965.6,938.1,966.1,937.8,966.6,937.5z"/>
<path class="st1" d="M966.6,935.6c-0.5,0.9-1,1.8-1.6,2.8c-63.6,36.7-137.4,57.7-216.2,57.7c-78.4,0-152-20.8-215.5-57.3
	c0-0.5,0-1.1,0-1.6c0-159.7,86.5-299.3,215.1-374.4h0.4c0.9,0,1.8,0,2.7,0C879.8,637.7,966.1,776.5,966.6,935.6z"/>
<path class="st1" d="M751.6,562.8c-0.9,0-1.8,0-2.7,0h-0.4c0.5-0.3,1-0.6,1.5-0.9C750.5,562.2,751,562.5,751.6,562.8z"/>
<path class="st1" d="M966.6,937.2v0.3c-0.5,0.3-1.1,0.6-1.6,0.9c0.5-0.9,1.1-1.8,1.6-2.8C966.6,936.1,966.6,936.7,966.6,937.2z"/>
<path class="st1" d="M1399.9,937.2c0,239.3-194,433.3-433.3,433.3c-78.9,0-152.9-21.1-216.6-58c129.4-74.9,216.5-214.8,216.6-375
	c128.9-75.1,215.5-214.8,215.5-374.7c0-0.5,0-1.1,0-1.6C1312.3,636,1399.9,776.3,1399.9,937.2z"/>
</svg>
